<svg width="71" height="71" viewBox="0 0 71 71" fill="none" xmlns="http://www.w3.org/2000/svg">
<circle cx="35.3128" cy="35.8235" r="30.1507" fill="white" stroke="#0F0F0F" stroke-width="10"/>
<g clip-path="url(#clip0_18_1684)">
<path d="M17.8188 35.8179C17.6148 28.7524 22.3684 21.8636 29.3421 19.3624C32.3922 18.2578 35.6904 18.0273 38.8646 18.6971C41.1213 19.163 43.2627 20.0727 45.1645 21.3735C45.8383 21.828 46.0232 22.6371 45.6068 23.2833C45.5106 23.4356 45.3847 23.5671 45.2367 23.6699C45.0886 23.7727 44.9214 23.8447 44.745 23.8816C44.5686 23.9185 44.3865 23.9196 44.2096 23.8847C44.0328 23.8499 43.8647 23.7799 43.7155 23.6789C42.5404 22.926 41.3298 22.2497 39.9944 21.8335C35.2284 20.3495 30.761 20.9628 26.6798 23.8692C23.7928 25.9227 21.8713 28.6977 21.003 32.1407C19.9361 36.371 20.5771 40.3685 23.0162 43.9867C25.5061 47.6831 29.0011 49.8735 33.4494 50.458C36.6459 50.8687 39.6575 50.2636 42.4884 48.7166C42.6582 48.6236 42.8253 48.525 42.9978 48.4428C43.6936 48.0951 44.4674 48.3059 44.8358 48.9562C44.9305 49.1103 44.9925 49.2824 45.0176 49.4615C45.0428 49.6407 45.0308 49.8231 44.9822 49.9973C44.9336 50.1716 44.8495 50.3339 44.7352 50.4742C44.621 50.6145 44.4789 50.7297 44.3181 50.8126C43.2498 51.3671 42.172 51.9229 41.0476 52.3404C39.0421 53.0796 36.909 53.4106 34.7738 53.3138C29.7215 53.1153 25.4965 51.1234 22.1384 47.3518C19.8557 44.8071 18.4013 41.6286 17.9681 38.2383C17.8585 37.4374 17.8654 36.6242 17.8188 35.8179Z" fill="#9E2828"/>
<path d="M35.6367 42.5194C34.4739 42.5194 33.6221 42.1648 32.8976 41.4858C30.5557 39.268 28.2156 37.0497 25.8773 34.831C25.2487 34.2328 25.2131 33.3963 25.7664 32.8254C26.3197 32.2546 27.136 32.2641 27.7769 32.8679C30.0595 35.0282 32.342 37.1907 34.6246 39.3556C35.256 39.9552 35.6545 39.9306 36.2023 39.2502C40.8861 33.4292 45.5682 27.6072 50.2483 21.7844C50.6277 21.3121 51.0824 21.0356 51.6987 21.1615C52.7395 21.3723 53.1353 22.5305 52.4588 23.4039C51.8219 24.2253 51.1618 25.0207 50.5127 25.8285C46.404 30.9303 42.2995 36.0326 38.1991 41.1353C37.4938 42.0142 36.5899 42.4769 35.6367 42.5194Z" fill="#9E2828"/>
<path d="M52.8122 35.6989C52.741 39.4568 51.7645 42.5741 49.9183 45.4189C49.4513 46.1403 48.6707 46.3443 47.9681 45.9227C47.3244 45.5352 47.1464 44.6905 47.6011 43.9759C48.5421 42.5346 49.2363 40.9468 49.6554 39.2775C50.2168 36.9656 50.2102 34.5523 49.6362 32.2435C49.5171 31.7521 49.5595 31.2852 49.9101 30.8964C50.0632 30.7096 50.2656 30.5694 50.4944 30.4918C50.7231 30.4141 50.9691 30.402 51.2043 30.457C51.465 30.5022 51.706 30.6251 51.8956 30.8095C52.0852 30.994 52.2147 31.2314 52.2671 31.4906C52.6217 32.8655 52.8048 34.279 52.8122 35.6989V35.6989Z" fill="#9E2828"/>
</g>
<defs>
<clipPath id="clip0_18_1684">
<rect width="35" height="35" fill="white" transform="translate(17.8125 18.3235)"/>
</clipPath>
</defs>
</svg>
