<svg width="460" height="182" viewBox="0 0 460 182" fill="none" xmlns="http://www.w3.org/2000/svg">
<path d="M18.5151 171.818C18.5943 172.702 19.0541 173.263 19.6996 173.206C19.7952 173.197 19.9604 173.158 20.0756 173.1C19.6389 173.066 19.6307 172.706 19.59 172.251C19.5023 171.271 20.9056 168.375 22.8722 165.042C29.289 163.239 42.2285 156.779 41.6656 150.492C41.3146 146.572 35.4876 146.082 32.906 146.313C20.5474 147.419 12.5775 155.289 12.8685 158.54C13.0291 160.333 14.3866 160.693 16.0838 160.541C16.4663 160.507 16.4641 160.483 16.4641 160.483C15.8384 160.491 14.6374 159.996 14.5497 159.016C14.2715 155.909 24.3625 147.776 32.8007 147.021C37.0318 146.642 40.2289 147.633 40.4322 149.904C40.7746 153.729 31.3034 159.902 24.2159 162.825C27.8156 157.009 32.4371 150.764 33.8474 150.638C34.0626 150.619 34.3319 150.667 34.5467 150.913C34.3155 149.945 33.2845 149.194 32.4239 149.271C30.6072 149.434 24.8971 157.246 21.3919 163.849C20.4072 164.154 19.5552 164.327 18.8381 164.391C18.3839 164.432 18.2276 164.301 18.2169 164.182C18.1228 163.13 20.4936 161.351 21.1961 160.855C21.1701 160.833 21.1462 160.835 21.1223 160.837C20.5247 160.891 17.2298 163.114 17.3453 164.404C17.4245 165.289 18.6647 165.684 20.5292 165.517C19.2262 168.188 18.3995 170.527 18.5151 171.818ZM38.0825 159.704C37.2483 161.153 36.3203 162.898 35.8447 164.314C35.6071 164.89 35.5282 165.355 35.5953 165.566C35.8225 166.22 36.4626 166.91 37.1408 166.68C36.5935 166.488 37.8394 164.256 38.9409 162.832C40.4058 160.894 41.4437 159.837 43.5274 158.349C42.9701 159.122 42.3293 160.577 42.3892 161.247C42.4149 161.533 43.2069 162.306 43.6372 162.267C45.2866 162.12 47.9154 159.185 48.2943 158.573C48.2661 158.528 48.1248 158.564 48.1031 158.59C46.7387 160.038 45.1856 161.261 44.0468 161.46C44.6687 159.524 46.4965 157.602 46.9732 157.005C47.1234 156.799 46.0513 155.858 45.7905 155.906C45.2928 155.999 44.612 156.469 43.7397 157.222C41.8166 158.888 39.6059 161.11 38.4867 162.873C38.9095 161.944 39.6455 160.745 40.2139 159.827C40.8454 158.806 41.5986 157.799 41.9593 157.791C42.1527 157.798 42.2351 157.911 42.2266 157.815C42.173 157.218 41.1812 156.367 40.6075 156.418C40.5119 156.427 40.4184 156.459 40.2835 156.568C39.7287 157.099 38.81 158.41 38.0825 159.704ZM48.1691 161.958C50.8639 161.644 55.1214 157.793 54.9887 156.311C54.9288 155.642 53.8039 155.188 53.4214 155.223C52.3935 155.315 50.3324 156.246 48.496 158.073C47.1034 159.475 46.043 161.088 45.5674 162.504C45.4233 163.047 45.3466 163.536 45.3979 164.11C45.4557 164.755 46.465 165.532 47.23 165.464C50.4093 165.179 54.7335 160.189 56.4005 158.354C56.4657 158.275 56.2638 158.173 56.1964 158.227C53.9618 160.451 49.8848 164.166 48.1398 164.322C47.6139 164.369 47.3838 164.221 47.382 163.932C47.3981 163.304 47.8077 162.496 48.1691 161.958ZM54.1788 155.878C54.1167 156.799 50.4953 161.027 48.4609 161.45C49.1364 160.112 51.6025 156.976 54.1788 155.878ZM54.5097 150.692C54.5171 151.582 51.7742 153.78 49.008 153.835C48.9342 153.817 49.1511 154.087 50.1615 154.069C53.4557 153.991 56.3785 152.187 56.3992 151.342C56.3606 150.911 55.1098 150.397 54.5318 150.4C54.3666 150.439 54.5143 150.474 54.5097 150.692ZM61.723 155.443C61.718 155.926 60.2662 157.742 60.1945 157.749C60.1706 157.751 60.227 157.842 60.2509 157.84C60.8963 157.782 62.2739 156.213 62.2678 155.876C62.2775 155.177 61.8682 154.105 61.1989 154.165C59.0953 154.353 55.8136 156.454 55.5938 158.305C55.4728 159.376 56.9602 160.111 57.2532 160.422C56.4465 160.831 53.1123 163.154 53.1326 164.188C53.2992 164.703 53.6007 165.11 54.1266 165.063C55.6804 164.924 58.7223 163.374 58.9179 161.791C58.9446 161.282 58.285 160.643 57.9528 160.431C60.4193 158.644 65.041 156.977 64.8195 156.925C64.8131 156.853 64.7132 156.814 64.6654 156.818C64.3546 156.846 61.3419 157.646 57.7098 160.14C57.4515 159.946 56.8436 159.615 56.9028 159.2C57.113 158.049 60.6148 155.446 61.723 155.443ZM57.3852 160.82C57.4665 161.728 54.6393 163.523 53.7306 163.87C54.3618 163.114 56.0237 161.761 57.3852 160.82ZM61.9706 164.144C63.4419 163.892 66.8939 159.655 68.7724 157.222C68.8377 157.144 68.701 156.963 68.5444 157.098C67.2125 158.638 64.02 162.274 62.596 162.787C62.7951 161.781 65.5821 156.037 66.5707 156.045C66.7641 156.052 66.8943 156.161 66.8857 156.065C66.8322 155.468 65.7905 154.597 65.2407 154.646C65.145 154.655 65.0037 154.692 64.8949 154.822C63.4742 156.178 60.4746 161.7 60.5988 163.086C60.6373 163.516 61.2884 164.06 61.6816 164.146C61.8032 164.159 61.875 164.152 61.9706 164.144ZM67.1363 150.79C66.5319 151.037 65.7627 152.672 65.8486 153.363C65.9111 153.791 66.458 154.248 66.7541 153.788C67.0046 153.356 68.0165 152.277 68.4079 152.074C68.6601 151.931 68.8599 152.009 68.9077 152.005C69.0033 151.996 68.8278 151.651 68.5912 151.431C68.2484 151.1 67.6797 150.669 67.1363 150.79ZM74.6068 153.326C73.1726 153.454 71.6156 154.365 69.8841 155.749C67.4979 157.625 65.6204 160.877 65.736 162.168C65.7852 162.718 66.6465 163.725 67.0768 163.687C68.3198 163.575 72.8332 158.545 73.6099 157.801C72.6312 160.057 72.2166 161.347 72.2594 161.825C72.3065 162.351 72.8773 162.806 73.2791 162.987C73.5288 163.085 73.7982 163.133 74.0765 163.012C75.4005 162.46 79.277 157.582 80.3089 156.189C80.3742 156.111 80.2375 155.93 80.1048 156.063C79.1407 157.137 75.2995 161.601 74.0412 161.81C74.504 160.251 76.1338 156.924 77.9549 153.58C78.9699 151.73 79.8238 150.232 80.7578 148.823C81.6462 147.443 83.0467 145.052 83.8937 145.362C84.3475 145.586 83.2672 144.286 81.9349 144.477C81.7198 144.496 81.4262 144.715 81.0933 145.034C80.5624 145.564 79.9615 146.389 79.304 147.387C78.2761 149.094 76.9716 151.211 75.695 153.638C75.4585 153.418 75.061 153.285 74.6068 153.326ZM74.1808 156.641C71.6023 159.33 68.0151 162.326 67.7133 162.184C67.5114 162.082 68.8882 159.428 70.8577 157.204C72.0569 155.795 73.5254 154.435 74.5059 154.082C74.832 153.956 75.1905 153.924 75.5098 153.992L74.1808 156.641ZM80.2678 159.084C82.9387 158.773 87.2201 154.919 87.0874 153.437C87.0275 152.768 85.8787 152.317 85.5201 152.349C84.4922 152.441 82.4311 153.372 80.5947 155.199C79.2022 156.601 78.1179 158.216 77.6662 159.63C77.522 160.173 77.4214 160.664 77.4727 161.238C77.5305 161.883 78.5638 162.658 79.3048 162.592C82.4841 162.307 86.8323 157.316 88.4753 155.482C88.5406 155.404 88.3625 155.299 88.2951 155.353C86.0605 157.577 81.9835 161.292 80.2385 161.448C79.7126 161.495 79.4825 161.347 79.4807 161.058C79.4968 160.43 79.8825 159.625 80.2678 159.084ZM86.2776 153.004C86.2155 153.925 82.594 158.153 80.5358 158.578C81.2112 157.241 83.7012 154.102 86.2776 153.004ZM97.4955 152.963C97.7827 152.673 96.9022 151.45 96.3285 151.502C95.5158 151.574 91.5975 155.178 89.1557 158.047C88.6965 158.57 88.2851 159.089 88.0564 159.495C88.355 158.794 89.4397 156.913 90.4305 155.331C91.0641 154.334 91.8587 153.251 92.1716 153.247C92.365 153.254 92.4713 153.365 92.4627 153.269C92.4092 152.672 91.4174 151.821 90.8198 151.874C90.7481 151.881 90.6068 151.917 90.5197 152.022C89.941 152.555 89.0027 153.916 88.2513 155.213C87.5609 156.383 86.7788 157.875 86.3057 159.049C85.8065 160.203 85.7448 160.859 85.8076 161.022C86.0609 161.698 86.7031 162.411 87.4052 162.18C87.0317 162.045 87.1412 161.384 87.7181 160.562C87.9511 160.203 88.2059 159.819 88.4888 159.48C90.0865 157.41 93.3415 154.203 95.2225 153.143C94.08 154.378 91.6645 158.618 91.7865 159.98C91.8101 160.243 92.0095 160.587 92.3003 160.874C92.565 161.14 92.8472 161.331 93.0862 161.31C94.5205 161.181 98.0638 156.888 99.9401 154.431C100.005 154.353 99.8688 154.173 99.7361 154.305C98.3346 155.876 95.2095 159.457 93.7399 159.998C93.6871 158.87 96.9407 153.495 97.4955 152.963ZM103.177 146.768C100.527 147.318 97.9578 148.223 98.1497 149.29C98.2899 150.049 99.1433 150.43 99.5258 150.396C98.8722 150.093 100.18 148.819 102.41 148.162C101.63 149.412 101.031 150.526 100.474 151.564C97.9401 156.369 97.0742 158.808 97.1384 159.525C97.1619 159.788 97.214 159.832 97.2422 159.877C97.4177 160.223 97.9886 160.678 98.1884 160.757C98.4142 160.857 98.6618 160.931 98.9619 160.784C100.349 160.129 104.119 155.406 105.17 153.963C105.236 153.885 105.123 153.702 104.99 153.834C103.695 155.252 100.076 159.503 99.0375 159.476C99.4743 157.895 100.995 154.698 102.792 151.357C103.622 149.861 104.304 148.595 105.09 147.416C109.029 146.461 113.401 146.045 118.171 146.028C118.46 146.026 118.36 145.987 118.164 145.956C114.682 145.545 109.621 145.806 105.789 146.341C106.719 144.885 107.958 142.846 108.755 143.136C109.233 143.358 108.153 142.058 106.82 142.249C106.605 142.268 106.312 142.487 105.979 142.806C105.424 143.338 104.823 144.163 103.177 146.768ZM114.131 154.39C114.586 154.349 118.405 152.874 122.517 152.506C122.565 152.502 122.56 152.454 122.558 152.43C122.533 152.143 119.372 151.824 117.34 152.006C115.905 152.134 113.026 152.537 113.081 153.158C113.124 153.636 113.582 154.439 114.131 154.39ZM140.431 153.264C140.159 152.927 139.86 152.544 139.633 152.155C140.115 152.16 140.595 152.141 141.097 152.096C148.053 151.473 156.481 145.489 155.816 141.019C155.163 136.692 149.608 136.009 146.381 136.298C137.226 137.117 128.078 143.936 128.463 148.239C128.576 149.506 129.457 150.463 131.083 150.318C131.632 150.268 131.693 150.142 131.693 150.142C131.115 150.146 130.293 149.569 130.207 148.613C129.957 145.816 138.412 137.71 147.4 136.905C150.149 136.659 153.893 137.577 154.3 140.239C154.925 144.52 144.993 150.397 139.567 151.148C141.835 147.692 147.603 139.441 149.147 140.002C148.674 139.562 147.874 139.248 147.014 139.325C144.862 139.518 140.698 145.481 138.254 149.41C138.168 149.25 138.105 149.087 138.068 148.945C137.962 148.569 138.004 148.228 138.13 148.024C138.472 147.536 136.717 148.391 136.546 149.973C136.519 150.216 136.675 150.612 136.916 151.145L137.035 151.399C135.347 154.345 133.351 158.428 133.499 160.077C133.535 160.483 133.684 161.073 134.401 161.008C135.238 160.933 136.132 160.155 136.633 159.556C135.997 159.998 135.506 160.162 134.837 160.222C134.622 160.242 134.589 160.148 134.576 160.005C134.525 159.431 136.231 156.411 138.19 153.272C138.409 153.565 138.626 153.835 138.787 154.013C141.171 156.956 146.263 161.079 151.235 160.634C153.171 160.46 155.117 159.587 156.849 157.673C156.982 157.541 156.923 157.426 156.702 157.638C155.274 158.923 153.739 159.542 152.21 159.679C147.453 160.105 142.648 155.957 140.431 153.264ZM160.776 146.093C160.872 146.084 160.944 146.078 160.818 146.017C160.638 145.888 160.232 145.66 159.323 145.741C155.546 146.079 150.66 150.444 151.009 154.341C151.09 155.249 151.889 156.093 152.995 156.067C155.541 155.983 160.182 152.098 160.542 148.861C160.666 148.898 160.909 148.924 161.268 148.892C161.65 148.858 162.148 148.765 162.659 148.551C163.796 148.063 164.682 147.189 164.771 146.844C164.506 146.843 163.705 147.855 162.116 148.142C161.167 148.299 160.544 147.8 160.023 147.1C159.969 147.033 159.689 146.865 159.452 146.91C159.143 146.962 158.49 147.743 158.44 147.989C158.366 148.236 158.669 148.932 158.808 149.137C157.425 151.718 154.349 155.849 152.961 155.419C151.571 154.965 155.846 146.462 160.172 146.075C160.34 146.06 160.535 146.09 160.776 146.093ZM168.8 144.893C167.366 145.021 165.809 145.931 164.078 147.315C161.691 149.192 159.814 152.444 159.93 153.735C159.979 154.285 160.84 155.292 161.27 155.253C162.513 155.142 167.027 150.111 167.803 149.367C166.825 151.624 166.41 152.914 166.453 153.392C166.5 153.918 167.071 154.373 167.473 154.553C167.722 154.652 167.992 154.7 168.27 154.578C169.594 154.026 173.471 149.149 174.502 147.755C174.568 147.677 174.431 147.497 174.298 147.629C173.334 148.703 169.493 153.168 168.235 153.377C168.697 151.817 170.327 148.491 172.148 145.147C173.163 143.297 174.017 141.799 174.951 140.39C175.84 139.009 177.24 136.619 178.087 136.929C178.541 137.153 177.461 135.852 176.128 136.044C175.913 136.063 175.62 136.282 175.287 136.601C174.756 137.13 174.155 137.955 173.498 138.954C172.47 140.66 171.165 142.777 169.889 145.205C169.652 144.985 169.255 144.852 168.8 144.893ZM168.374 148.208C165.796 150.896 162.209 153.892 161.907 153.751C161.705 153.648 163.082 150.995 165.051 148.77C166.25 147.362 167.719 146.001 168.699 145.649C169.025 145.523 169.384 145.491 169.703 145.559L168.374 148.208ZM174.437 150.653C177.132 150.339 181.39 146.488 181.257 145.006C181.197 144.337 180.072 143.883 179.69 143.918C178.662 144.01 176.601 144.941 174.764 146.768C173.372 148.17 172.311 149.783 171.836 151.199C171.692 151.742 171.615 152.231 171.666 152.804C171.724 153.45 172.733 154.227 173.498 154.158C176.678 153.874 181.002 148.884 182.669 147.048C182.734 146.97 182.532 146.868 182.465 146.922C180.23 149.146 176.153 152.861 174.408 153.017C173.882 153.064 173.652 152.916 173.65 152.627C173.666 151.999 174.076 151.191 174.437 150.653ZM180.447 144.573C180.385 145.494 176.764 149.722 174.729 150.145C175.405 148.807 177.871 145.671 180.447 144.573ZM180.778 139.386C180.785 140.277 178.043 142.475 175.276 142.53C175.203 142.512 175.419 142.782 176.43 142.764C179.724 142.686 182.647 140.882 182.668 140.037C182.629 139.606 181.378 139.092 180.8 139.095C180.635 139.134 180.783 139.169 180.778 139.386ZM189.957 143.48C190.052 143.472 190.124 143.465 189.998 143.404C189.818 143.276 189.412 143.047 188.503 143.128C184.726 143.467 179.84 147.832 180.189 151.728C180.27 152.637 181.069 153.481 182.175 153.454C184.722 153.37 189.362 149.485 189.722 146.248C189.846 146.285 190.09 146.312 190.448 146.28C190.831 146.245 191.328 146.153 191.839 145.938C192.976 145.451 193.862 144.576 193.951 144.231C193.686 144.231 192.885 145.242 191.297 145.529C190.347 145.686 189.724 145.188 189.203 144.487C189.149 144.42 188.869 144.252 188.632 144.298C188.324 144.349 187.671 145.131 187.62 145.376C187.546 145.624 187.849 146.319 187.988 146.524C186.605 149.106 183.529 153.236 182.141 152.806C180.751 152.353 185.026 143.849 189.353 143.462C189.52 143.447 189.715 143.478 189.957 143.48ZM223.017 135.581C221.359 137.512 216.676 147.377 216.892 149.791C216.98 150.771 218.702 151.437 218.661 150.982C218.449 148.616 226.799 137.989 230.1 136.103C228.246 138.269 224.174 145.814 224.587 150.428C224.834 153.177 226.722 154.622 229.256 154.395C229.495 154.374 229.732 154.328 229.993 154.281C230.821 154.111 234.557 153.053 237.166 150.169C235.62 151.464 232.271 153.354 230.007 153.629C227.455 153.93 226.368 153.088 226.162 150.793C225.672 145.319 234.262 132.261 236.413 132.068C236.628 132.049 236.963 132.019 237.191 132.143C237.046 131.602 235.809 130.435 234.997 130.508C233.395 130.651 223.039 140.133 218.895 148.745C220.901 143.167 226.142 133.879 227.098 133.794C227.265 133.779 227.533 133.803 227.641 133.938C227.436 132.992 226.127 132.362 225.362 132.431C224.286 132.527 218.58 137.424 212.387 145.761C215.181 141.174 218.633 135.057 218.43 132.787C218.254 130.826 216.932 129.788 214.661 129.991C207.514 130.631 196.171 140.924 196.515 144.773C196.579 145.49 197.135 146.042 197.9 145.974C198.45 145.925 199.833 145.222 199.813 145.007C199.581 145.1 198.898 145.282 198.659 145.303C198.444 145.323 198.168 145.203 198.143 144.916C198.008 143.41 208.022 131.188 214.715 130.589C215.599 130.51 216.716 130.603 216.817 131.726C217.121 135.121 206.176 150.679 206.45 153.738C206.491 154.192 206.912 154.588 207.318 154.552C207.797 154.509 209.029 154.013 209.556 153.171C209.643 153.067 208.277 153.96 208.25 153.649C208.19 152.98 209.538 150.546 212.375 146.702C215.457 142.643 219.855 137.671 223.017 135.581ZM232.17 151.291C232.012 149.522 237.61 143.696 243.791 141.407C240.701 141.612 230.408 148.292 230.724 151.83C230.893 153.718 233.229 153.967 234.807 153.826C241.333 153.242 252.779 147.06 252.31 141.825C252.073 139.172 249.197 138.538 246.429 138.039C243.955 137.585 241.606 137.193 241.482 135.807C241.262 133.345 247.937 128.771 250.966 128.163C251.275 128.111 251.584 128.059 251.847 128.036C252.755 127.954 253.42 128.112 253.369 128.887C253.253 131.09 248.831 134.185 247.851 134.273C247.707 134.286 247.564 134.298 247.551 134.155C247.521 133.82 247.62 133.306 247.942 132.867C247.49 133.197 246.649 134.308 246.737 135.288C246.784 135.814 247.518 135.941 247.996 135.898C250.53 135.671 254.414 132.215 254.207 129.366C254.066 127.524 252.561 127.128 250.392 127.395C246.912 127.827 239.478 131.721 239.838 135.737C240.026 137.841 243.315 137.98 246.255 138.512C248.655 138.948 250.718 139.655 250.851 141.137C251.174 144.746 240.025 151.552 234.264 152.067C233.499 152.136 232.254 152.223 232.17 151.291ZM280.88 125.918C281.228 125.501 281.468 125.215 281.963 125.098C281.822 124.87 280.889 124.134 280.1 124.205C279.55 124.254 279.087 124.729 278.308 125.715C277.139 127.193 271.04 134.703 268.798 137.385L268.775 137.387C265.606 137.791 256.967 139.264 257.238 141.215C257.38 142.263 258.735 142.864 258.718 142.408C258.628 141.934 261.381 139.856 267.678 138.594C264.488 141.988 257.925 150.238 252.81 150.696C251.782 150.788 251.004 150.448 250.91 149.396C250.882 149.085 251.061 148.66 251.238 148.475C250.831 148.512 250.337 149.182 250.427 150.186C250.581 151.908 252.205 152.557 253.496 152.442C258.803 151.967 265.89 141.766 268.956 138.335C270.069 138.115 271.142 137.995 272.242 137.896C272.553 137.868 272.839 137.843 273.15 137.815C272.284 140.254 271.033 144.583 271.519 146.78C271.649 147.419 272.623 148.079 273.34 148.014C274.082 147.948 274.904 147.441 275.693 146.575C275.137 146.818 274.406 147.268 273.689 147.333C273.546 147.346 273.376 147.337 273.329 147.076C273.02 145.513 274.616 139.924 275.432 137.731L275.456 137.729C277.718 137.695 279.934 137.954 279.929 137.907C279.517 137.606 277.223 137.282 275.626 137.208C277.103 132.449 279.648 127.498 280.88 125.918ZM277.521 127.689C276.303 129.701 274.165 134.881 273.375 137.096C272.195 137.105 271.043 137.16 269.92 137.261C277.061 128.212 277.279 127.951 277.521 127.689Z" fill="white"/>
<path d="M64.9863 53.024C74.3682 52.3125 84.6596 56.0175 85.3901 64.1769C87.2735 85.2127 46.245 114.267 17.8148 116.813C15.2649 117.041 10.8266 116.989 10.5812 114.248C9.98763 107.618 22.5931 96.9795 32.4918 91.2741C32.7297 91.06 32.8514 90.9849 32.8457 90.9211C19.6961 96.9176 7.13622 108.066 7.76973 115.142C8.28338 120.879 15.7634 121.173 19.5881 120.831C52.4805 117.886 90.9992 89.5056 89.5744 67.8504C88.8316 55.9653 77.2862 49.738 60.1445 51.337C42.6841 52.9645 24.1218 63.8151 24.9836 73.4406C25.2575 76.5003 27.9833 78.9551 30.7881 78.7039C29.5141 78.1112 28.5599 76.783 28.4058 75.0619C27.8408 68.7511 46.1587 54.4526 64.9863 53.024ZM62.6065 68.787C64.9166 65.8814 65.9613 64.6313 66.965 63.6418C68.4445 62.2242 69.7841 61.3975 70.8554 61.8799C71.8801 62.5592 70.1571 59.8219 67.1972 59.0588C66.7339 58.9076 66.1488 58.8314 65.7026 58.8714C63.1528 59.0997 59.2405 64.2049 57.9807 65.9241C49.9354 76.5398 39.5722 95.7164 39.9774 100.242C40.0915 101.517 41.1048 102.069 41.9334 101.995C43.2084 101.881 45.9057 99.7115 46.0807 98.7962C44.6193 99.6982 43.5528 99.9864 42.4691 100.083C42.2237 97.3424 54.231 79.3038 62.6065 68.787ZM98.6257 95.1199C98.4564 96.0989 98.2699 96.8866 98.3269 97.5241C98.4297 98.6715 99.7607 99.9017 100.699 100.332C101.168 100.547 101.498 100.646 101.817 100.617C105.641 100.275 115.079 88.6991 120.082 82.1468C120.256 81.9384 119.892 81.457 119.602 81.8042C115.981 85.8553 107.647 95.4045 103.734 96.9115C103.688 96.4015 103.875 95.6137 104.177 94.6871C105.724 90.4362 110.839 82.9743 111.215 83.5832C111.402 82.7955 108.92 79.4835 107.703 80.2351C106.189 81.2702 102.405 85.6571 101.349 86.7798C98.2852 89.8813 89.9374 97.1186 87.8966 98.0081C87.711 98.089 87.5835 98.1004 87.4503 98.0481C86.8481 97.7807 90.9099 89.3208 96.5033 83.6153C100.333 79.7383 104.747 76.6444 108.427 76.1222C110.328 75.8235 111.624 76.6712 111.796 78.5835C111.881 79.5397 111.567 80.3389 111.3 80.9411C111.242 81.0106 111.375 81.0629 111.497 80.9878C112.06 80.102 112.537 78.967 112.44 77.8833C112.171 74.8873 108.893 74.1527 106.471 74.3696C94.7415 75.4197 81.4166 90.9418 82.0387 97.8901C82.1528 99.165 84.0271 101.439 85.2259 101.91C85.359 101.962 85.6892 102.061 85.8167 102.05C88.494 101.81 99.9654 89.9879 101.707 87.9044C100.638 89.6064 99.1795 92.6928 98.6257 95.1199ZM143.893 75.517C144.659 74.7416 142.311 71.482 140.781 71.619C138.614 71.813 128.165 81.4231 121.653 89.0743C120.429 90.469 119.332 91.8523 118.722 92.935C119.518 91.0646 122.411 86.0507 125.053 81.8302C126.743 79.173 128.862 76.2845 129.696 76.2741C130.212 76.2921 130.495 76.588 130.472 76.3331C130.33 74.7394 127.685 72.4703 126.091 72.6129C125.9 72.6301 125.523 72.728 125.291 73.0059C123.748 74.4291 121.245 78.0587 119.242 81.5152C117.401 84.6358 115.315 88.6136 114.053 91.7466C112.722 94.8216 112.558 96.5712 112.725 97.006C113.401 98.809 115.113 100.712 116.985 100.094C115.989 99.7338 116.281 97.9728 117.82 95.7788C118.441 94.8236 119.121 93.7989 119.875 92.8961C124.136 87.3741 132.816 78.822 137.831 75.9954C134.785 79.2882 128.344 90.5957 128.669 94.2292C128.732 94.9304 129.264 95.8466 130.039 96.6125C130.745 97.3204 131.497 97.8313 132.135 97.7742C135.96 97.4318 145.408 85.9836 150.412 79.4313C150.586 79.2229 150.222 78.7415 149.868 79.0944C146.131 83.2844 137.797 92.8336 133.878 94.2768C133.737 91.2694 142.414 76.9346 143.893 75.517ZM173.649 72.8529C174.415 72.0775 172.067 68.8179 170.537 68.9549C168.37 69.1489 157.921 78.759 151.409 86.4101C150.185 87.8049 149.088 89.1882 148.478 90.2709C149.274 88.4004 152.167 83.3865 154.809 79.1661C156.499 76.5088 158.618 73.6204 159.452 73.6099C159.968 73.628 160.251 73.9239 160.228 73.6689C160.086 72.0753 157.441 69.8061 155.847 69.9488C155.656 69.9659 155.279 70.0639 155.047 70.3417C153.504 71.765 151.001 75.3946 148.998 78.8511C147.157 81.9717 145.071 85.9495 143.809 89.0825C142.478 92.1575 142.314 93.9071 142.481 94.3419C143.157 96.1449 144.869 98.0477 146.741 97.4303C145.745 97.0697 146.037 95.3086 147.576 93.1147C148.197 92.1595 148.877 91.1348 149.631 90.2319C153.892 84.71 162.572 76.1579 167.587 73.3313C164.541 76.6241 158.1 87.9316 158.425 91.565C158.488 92.2662 159.02 93.1825 159.795 93.9484C160.501 94.6562 161.253 95.1672 161.891 95.1101C165.716 94.7676 175.164 83.3194 180.168 76.7671C180.342 76.5588 179.978 76.0773 179.624 76.4303C175.887 80.6203 167.553 90.1695 163.634 91.6127C163.493 88.6053 172.169 74.2705 173.649 72.8529ZM202.731 71.2772C203.538 70.2411 204.315 69.5932 204.831 69.6113C205.283 69.6351 205.567 69.931 205.544 69.676C205.401 68.0823 202.687 65.7551 201.221 65.8864C200.902 65.9149 200.653 66.0015 200.299 66.3545C197.044 69.4732 192.562 75.4004 189.475 78.9539C186.742 82.1544 180.753 88.4736 177.808 90.0224C177.642 88.1738 180.263 82.2846 183.138 77.7864C185.048 74.7238 187.388 71.43 188.419 71.4662C188.935 71.4843 189.155 71.7859 189.132 71.5309C188.983 69.8735 186.338 67.6044 184.809 67.7413C184.617 67.7585 184.241 67.8564 183.95 68.2037C182.471 69.6213 180.114 72.7238 178.227 76.0414C175.044 81.4025 172.114 88.1547 172.36 90.8957C172.497 92.4256 174.627 93.9698 175.647 93.8785C175.774 93.8671 175.966 93.8499 176.157 93.8328C179.913 92.7254 188.045 82.359 193.895 75.2168C185.832 86.3482 178.675 104.017 176.011 111.581C175.103 114.361 174.016 117.285 173.996 119.215C173.907 120.379 175.177 123.8 177.704 123.316C178.023 123.288 178.272 123.201 178.388 123.062C178.816 119.94 186.031 105.8 194.496 97.7169C194.496 97.7169 194.462 97.3344 194.143 97.3629C192.346 98.1021 183.862 107.408 179.448 114.807C182.576 107.394 191.085 88.3196 195.503 81.6912C198 77.9979 200.305 74.3216 202.731 71.2772ZM277.08 44.0586C278.159 43.1909 279.208 42.7114 279.944 43.0311C281.101 43.7628 278.522 40.0741 274.86 40.0807C274.345 40.0626 273.417 40.4669 272.338 41.3346C262.018 50.2264 247.516 74.8497 247.862 80.1519C247.947 81.815 248.949 82.2394 250.032 82.1423C251.371 82.0225 254.19 79.7782 255.298 78.5223C254.626 78.9038 252.156 80.0245 251.194 80.0464C250.939 80.0692 250.673 79.9646 250.655 79.7733C250.456 77.5422 258.786 66.5155 262.048 62.0468C266.042 60.7253 269.815 59.8092 273.64 59.4667C274.469 59.3925 275.234 59.3241 276.068 59.3136C280.75 59.2157 288.398 59.9446 288.461 64.2441C288.498 75.4213 249.01 96.5629 227.847 98.4578C227.018 98.5319 226.189 98.6061 225.419 98.6109C223.686 98.6375 218.935 98.6774 218.851 96.3074C218.687 89.4467 234.468 78.3954 240.945 74.6669C241.374 74.4357 241.438 74.43 241.369 74.372C236.709 75.4317 216.383 87.404 216.672 96.3739C216.782 101.183 220.847 102.811 226.067 102.986C227.163 103.017 228.379 102.972 229.654 102.858C249.224 101.106 293.419 83.0128 292.416 66.0747C292.066 59.2949 282.543 57.7058 277.021 57.7504C276.059 57.7723 275.161 57.7885 274.847 57.8807C279.282 56.4556 294.361 50.4791 294.078 41.5729C293.856 34.0748 284.519 31.698 277.658 31.8624C276.442 31.9071 275.289 31.9461 274.141 32.0488C254.635 33.7952 241.339 45.3309 241.132 52.3533C241.029 55.5111 243.113 57.2522 246.173 56.9782C246.938 56.9098 247.552 56.5977 247.547 56.534C245.664 56.317 245.092 54.9546 245.1 53.6045C244.848 47.2015 264.699 34.2436 278.93 33.869C282.326 33.7577 291.798 34.7731 291.386 39.5007C290.881 44.6221 274.905 54.213 264.573 58.6721C268.712 53.2253 272.607 47.9289 277.08 44.0586ZM319.241 56.6049C319.496 56.582 319.687 56.5649 319.351 56.4022C318.87 56.0597 317.788 55.4498 315.365 55.6667C305.294 56.5684 292.264 68.2088 293.194 78.5992C293.411 81.0215 295.54 83.2726 298.49 83.2013C305.281 82.9788 317.654 72.6181 318.616 63.9859C318.946 64.0849 319.595 64.1553 320.551 64.0697C321.571 63.9784 322.899 63.7311 324.261 63.1593C327.293 61.8597 329.655 59.5278 329.894 58.6069C329.187 58.6059 327.051 61.3031 322.814 62.068C320.281 62.4875 318.62 61.1583 317.232 59.2907C317.087 59.1109 316.341 58.6637 315.709 58.7845C314.886 58.9224 313.145 61.006 313.011 61.6606C312.813 62.3209 313.621 64.1761 313.991 64.7213C310.303 71.6057 302.1 82.621 298.399 81.4745C294.693 80.2642 306.092 57.5893 317.63 56.5563C318.076 56.5164 318.597 56.5982 319.241 56.6049ZM334.584 73.4798C334.351 74.4645 334.071 75.6462 334.128 76.2837C334.231 77.4311 335.637 78.7831 336.703 79.2017C337.044 79.4281 337.438 79.5214 337.757 79.4929C341.582 79.1504 351.019 67.5747 356.023 61.0224C356.197 60.814 355.832 60.3326 355.478 60.6856C351.921 64.7309 343.645 74.2107 339.738 75.7814C339.578 73.9966 341.531 69.2595 344.336 64.7032C346.189 61.7101 347.768 59.2555 348.633 58.1499C349.382 57.1833 350.159 56.5354 350.605 56.4955C351.185 56.5078 351.404 56.8094 351.382 56.5545C351.239 54.9608 348.594 52.6917 347.064 52.8286C346.809 52.8515 346.496 52.9437 346.2 53.2273C342.818 56.3574 338.597 62.3255 335.574 65.8733C332.776 69.0795 326.788 75.3987 323.842 76.9475C323.677 75.0989 326.368 69.2678 329.236 64.7058C331.153 61.7069 333.533 58.1525 334.501 58.1944C335.08 58.2068 335.364 58.5027 335.341 58.2477C335.192 56.5903 332.484 54.3268 330.954 54.4638C330.763 54.4809 330.386 54.5789 330.096 54.9262C328.616 56.3438 326.213 59.6432 324.261 62.9665C321.079 68.3277 318.149 75.0798 318.395 77.8208C318.532 79.3507 320.662 80.8949 321.682 80.8036C321.682 80.8036 322.064 80.7693 322.192 80.7579C325.948 79.6506 333.668 69.7065 339.518 62.5643C337.422 65.7078 335.405 70.4505 334.584 73.4798ZM354.722 74.1185C354.323 69.6564 365.527 54.1314 372.336 53.3932C372.886 53.7938 370.723 59.0636 369.795 60.1749C369.684 60.3775 370.015 60.4765 370.131 60.3376C372.092 58.5556 375.004 55.9174 374.787 53.4951C374.701 52.5389 372.34 50.5656 370.874 50.6969C366.348 51.1021 360.207 54.9933 355.442 60.6246C351.542 65.1504 349.647 69.818 349.376 72.541C349.254 73.323 349.311 73.9605 349.42 74.4648C349.921 76.4761 352.387 78.1829 354.427 78.0003C362.332 77.2926 373.601 64.6533 378.621 58.9991C378.795 58.7907 378.326 58.5757 378.146 58.7203C372.414 64.3098 362.475 73.8742 356.668 75.0367C356.1 75.1518 354.814 75.1385 354.722 74.1185ZM397.746 33.1266C399.923 30.1687 401.715 28.6588 403.047 29.1821C404.321 29.7749 401.498 26.2365 397.928 26.5561C397.418 26.6017 396.56 27.0641 395.609 27.9204C393.073 30.4606 390.17 34.6401 388.661 37.1528C383.382 45.6574 375.831 58.9276 373.143 66.9432C371.608 71.3216 371.663 73.3729 371.9 73.8657C372.437 74.8457 373.959 76.0588 374.423 76.2101C375.094 76.5355 375.818 76.7277 376.555 76.3404C375.072 76.2805 374.864 75.3995 375.324 74.0732C375.824 72.4862 377.055 70.4483 378.785 68.2373C378.785 68.2373 381.095 65.3317 381.681 64.7009C385.883 59.9553 390.953 55.5818 394.56 53.5239C391.513 56.8167 385.606 67.6266 385.931 71.2601C386.034 72.4075 387.7 74.5073 389.015 74.8394C389.472 74.9269 389.722 74.8403 389.971 74.7537C390.655 74.4997 391.571 73.9679 392.053 73.6035C396.582 70.3707 403.455 61.7234 407.605 56.4041C407.779 56.1958 407.414 55.7143 406.997 56.073C403.318 60.1935 395.059 69.8645 391.204 71.302C391.127 68.2889 399.676 53.9655 401.219 52.5422C401.921 51.7725 399.573 48.5129 398.107 48.6442C395.94 48.8382 385.66 57.4693 379.084 65.8331C383.328 55.1078 392.132 40.7616 397.746 33.1266ZM406.78 64.1887C413.902 63.3583 425.319 53.0832 424.965 49.131C424.806 47.3461 421.742 46.1425 420.786 46.2281C418.045 46.4736 412.548 48.9576 407.651 53.8297C403.938 57.5677 401.046 61.8748 399.842 65.6452C399.457 67.0932 399.189 68.4024 399.326 69.9323C399.48 71.6534 402.235 73.7199 404.212 73.543C412.69 72.7839 424.285 59.4729 428.666 54.5827C428.84 54.3743 428.366 54.0956 428.186 54.2402C422.227 60.1712 411.355 70.0762 406.702 70.4928C405.299 70.6184 404.685 70.2235 404.681 69.4529C404.724 67.7784 405.752 65.6301 406.78 64.1887ZM422.806 47.975C422.64 50.4315 412.983 61.7056 407.494 62.8396C409.295 59.2728 415.935 50.9033 422.806 47.975ZM427.814 53.8879C425.589 57.7497 423.115 62.4049 421.846 66.1811C421.213 67.7157 421.002 68.9554 421.181 69.5177C421.787 71.2626 423.494 73.1017 425.303 72.49C423.843 71.9781 427.166 66.0261 430.103 62.229C434.009 57.0601 436.777 54.242 442.334 50.2747C440.847 52.3355 439.139 56.2153 439.298 58.0002C439.367 58.7651 441.479 60.825 442.626 60.7222C447.025 60.3284 454.035 52.5041 455.045 50.8715C454.97 50.7497 454.593 50.8477 454.535 50.9172C450.897 54.777 446.756 58.0393 443.719 58.5683C445.377 53.4078 450.251 48.2807 451.522 46.689C451.923 46.1391 449.064 43.6321 448.368 43.7586C447.041 44.0059 445.226 45.2608 442.9 47.2683C437.771 51.7113 431.876 57.6366 428.892 62.3375C430.019 59.8591 431.982 56.6633 433.498 54.2144C435.182 51.4934 437.19 48.8075 438.152 48.7857C438.668 48.8038 438.887 49.1054 438.865 48.8504C438.722 47.2568 436.077 44.9876 434.547 45.1246C434.292 45.1474 434.043 45.234 433.683 45.5232C432.204 46.9408 429.754 50.4372 427.814 53.8879Z" fill="#BD1616"/>
</svg>
