<svg width="1727" height="342" viewBox="0 0 1727 342" fill="none" xmlns="http://www.w3.org/2000/svg">
<g clip-path="url(#clip0_39_1618)">
<rect width="1727" height="341" transform="translate(0 0.185547)" fill="black"/>
<g opacity="0.2" clip-path="url(#clip1_39_1618)">
<path d="M1561 139.95L1562.69 138.501C1565.41 141.602 1565.22 143.557 1561.8 145.242C1557.79 147.332 1553.61 149.018 1549.69 151.242C1547.53 152.493 1545.62 154.12 1544.03 156.045C1541.09 159.585 1538.6 163.478 1535.76 167.084C1534.56 168.229 1533.31 169.309 1531.99 170.32C1530.59 171.719 1529.33 173.253 1528.04 174.77C1527.69 175.174 1527.59 175.932 1527.18 176.118C1519.75 179.606 1517.71 187.41 1513.15 193.19C1510.99 195.954 1510.4 200.589 1505.55 200.69C1505.75 202.031 1505.75 203.394 1505.55 204.735C1503.42 211.173 1500.64 217.442 1499.12 224.015C1498.24 227.757 1499.34 231.953 1496.72 235.408C1494.68 238.088 1492.65 240.767 1490.59 243.43C1488.77 245.79 1488.3 248.132 1490.51 250.542C1490.95 251.031 1491.64 251.789 1491.5 252.228C1489.82 258.194 1490.1 264.227 1490.71 270.294C1490.71 270.783 1489.95 271.339 1489.44 271.98L1492.96 275.115L1486.03 282.867C1490.13 284.289 1494.3 285.471 1498.53 286.406C1502.33 287.122 1505.91 288.734 1508.96 291.108C1516.82 296.466 1524.96 301.394 1533.34 305.872C1537.01 307.844 1537.21 309.344 1535.17 312.613C1529.75 321.124 1524.56 329.77 1519.31 338.365C1518.44 339.781 1517.62 341.23 1516.46 343.236H1539.02C1539.04 342.226 1538.97 341.216 1538.82 340.219C1537.72 336.444 1538.49 334.169 1541.77 331.118C1545.05 328.068 1546.55 322.506 1548.05 317.821C1548.95 315.074 1549.99 314.231 1552.69 314.45C1556.19 314.72 1559.7 314.619 1563.21 314.771C1566.13 314.872 1567.08 313.54 1567.08 310.675C1567.08 308.299 1568.14 305.906 1568.11 303.546C1568.11 300.866 1568.26 297.361 1566.73 295.676C1560.92 289.255 1564.38 283.491 1567.59 278.081C1572.23 270.261 1577.72 262.913 1582.78 255.346C1585.13 252.375 1587.22 249.219 1589.05 245.908C1593.22 236.672 1601.69 233.739 1610.2 230.992C1612.79 230.167 1616.06 231.616 1618.76 230.992C1626.11 229.307 1633.39 227.167 1640.58 224.841C1644.11 223.695 1645.98 223.661 1647.33 227.824C1649.56 234.279 1652.75 240.38 1655.44 246.683C1658.31 253.424 1657.35 256.053 1650.47 258.48C1642.66 261.16 1634.69 263.385 1626.84 265.845C1625.75 266.075 1624.74 266.567 1623.9 267.278C1620.45 270.954 1617.82 275.311 1616.17 280.066C1614.52 284.821 1613.88 289.869 1614.31 294.883C1617.33 295.147 1620.37 294.466 1622.99 292.936C1625.61 291.405 1627.69 289.1 1628.95 286.339C1632.04 278.822 1639.67 278.451 1645.22 274.879C1645.49 274.71 1647.27 276.008 1647.45 276.834C1647.81 278.266 1647.11 279.985 1647.45 281.384C1647.74 282.311 1649.65 283.71 1650.1 283.474C1654.41 281.3 1659.98 279.817 1662.45 276.244C1667.51 268.946 1674.26 265.39 1682.08 262.761C1688.45 260.621 1694.81 258.48 1701.21 256.407C1705.23 255.093 1706.28 252.346 1705.18 248.52C1704.23 246.193 1703.43 243.813 1702.77 241.391C1701.74 235.526 1700.91 229.593 1700.35 223.678C1700.27 222.717 1701.77 220.981 1702.85 220.661C1707.78 219.195 1712.83 218.1 1718.2 216.785C1717.85 217.688 1717.42 218.557 1716.91 219.38C1715.77 220.965 1714.52 222.498 1713.25 223.981C1705.28 233.268 1706.63 237.717 1715.4 246.548C1717.08 247.993 1719.15 248.918 1721.36 249.211C1724.27 249.658 1727.24 249.658 1730.15 249.211C1734.75 248.52 1738.6 249.211 1741.97 252.7C1743.34 254.134 1745.09 255.154 1747.02 255.64C1748.95 256.126 1750.97 256.059 1752.86 255.447C1753.76 255.091 1754.74 255.038 1755.67 255.295C1759.72 257.78 1764.26 259.345 1768.99 259.879L1766.39 267.851C1772.85 269.789 1774.26 265.289 1776.16 260.991C1776.63 260.307 1777.22 259.722 1777.92 259.27C1778.61 258.819 1779.38 258.51 1780.2 258.362C1782.59 257.868 1785.04 257.692 1787.48 257.84C1793.69 258.126 1799.3 255.48 1805.26 254.469C1809.75 253.643 1813.7 250.323 1819 247.593L1815.37 245.402L1816.28 245.149C1815.94 243.072 1815.3 241.056 1814.37 239.166C1812.6 236.47 1810.88 233.638 1811 230.571C1811 227.858 1812.69 225.178 1813.51 222.566L1801.61 229.594L1802.72 216.229C1797.54 220.088 1792.46 223.796 1787.53 227.622C1785.14 229.78 1782.63 231.811 1780.03 233.706C1778.44 234.683 1775.62 235.391 1774.29 234.7C1771.32 233.015 1770.22 227.706 1772.04 225.515C1774.63 222.397 1777.62 219.616 1780.49 216.684C1781.33 215.774 1782.17 214.83 1782.98 213.903L1782.23 212.757C1778.54 215.116 1774.83 217.425 1771.2 219.835C1769.92 220.678 1768.95 222.077 1767.59 222.667C1767.03 222.862 1766.44 222.927 1765.85 222.857C1765.27 222.787 1764.7 222.583 1764.21 222.262C1763.91 221.796 1763.73 221.267 1763.67 220.716C1763.61 220.166 1763.69 219.61 1763.89 219.094C1764.85 217.056 1765.95 215.086 1767.18 213.195L1755.36 210.65L1747.46 203.454L1738.09 207.398C1737.8 205.99 1737.66 204.554 1737.7 203.117C1739.1 196.376 1736.62 190.393 1733.56 184.662C1732.65 182.977 1730.71 181.814 1729.31 180.348C1728.05 179.137 1726.92 177.805 1725.93 176.371C1718.24 164.147 1707.25 154.338 1694.22 148.074C1689.16 145.63 1682.76 146.22 1676.98 145.327C1675.75 145.023 1674.55 144.587 1673.4 144.029C1674.2 143.035 1674.79 141.551 1675.82 141.13C1683.21 138.097 1690.3 133.007 1698.93 136.276C1701.4 137.449 1703.75 138.86 1705.94 140.49C1705.8 136.04 1700.55 133.293 1694.69 133.614C1688.92 134.226 1683.28 135.727 1677.96 138.063C1674.92 139.243 1672.68 140.726 1670.63 136.58C1669.2 138.939 1673.08 142.411 1668.76 143.068C1666.4 143.245 1664.03 143.245 1661.67 143.068L1661.36 141.872C1660.77 142.731 1660.35 143.877 1659.52 144.366C1658.55 144.817 1657.48 144.975 1656.42 144.821C1656.03 144.821 1655.51 143.86 1655.42 143.271C1655.2 141.737 1655.71 139.209 1654.98 138.804C1652.69 137.481 1650.13 136.708 1647.49 136.546C1641.73 136.462 1641.73 136.715 1641.79 130.748C1641.79 126.569 1641.79 126.569 1638.42 125.962C1636.19 121.985 1636.53 118.985 1640.56 116.086C1645 112.901 1646.69 107.963 1642.12 103.109C1640.56 101.424 1643.18 95.5923 1645.78 94.362L1648.19 93.2497C1648.06 92.7778 1648.03 92.525 1647.97 92.525C1641.56 92.1374 1641.41 86.9128 1640.33 82.5141C1635.9 64.6158 1634.4 70.565 1647.97 59.1721C1661.28 48.0152 1675.21 37.5998 1688.73 26.7294C1689.22 26.1825 1689.57 25.5261 1689.75 24.8161C1689.93 24.106 1689.93 23.3633 1689.76 22.6509C1688.55 19.2802 1689.61 17.5949 1692.82 16.6679C1696.32 15.6904 1699.84 14.8309 1703.24 13.5669C1706.63 12.3029 1710.11 10.8704 1708.88 5.79753L1705.37 6.87612L1707.68 1.8201L1695.86 5.56156L1696.69 0.134766C1693.31 1.97178 1690.79 3.50545 1690.24 7.19634C1689.85 8.92703 1688.84 10.4561 1687.4 11.494C1682.86 14.7467 1678.03 17.5949 1673.4 20.7465C1670.67 22.6172 1668.17 24.8418 1665.47 26.78C1660.08 30.6899 1655.03 35.2909 1649.12 38.1392C1642.71 41.5494 1635.64 43.56 1628.39 44.0378C1627.13 44.0072 1625.89 44.3158 1624.79 44.9311C1619.27 48.7231 1619.3 48.7736 1613.09 45.0827L1614.78 41.3244C1614.07 41.0885 1613.4 40.6166 1612.84 40.7346C1606.35 41.9986 1602.96 38.6953 1601.02 33.0326C1600.04 30.1338 1598.22 29.1563 1595.14 30.2349C1591.77 31.4315 1587.93 31.8023 1584.76 33.4202C1583.83 34.0231 1583.06 34.8313 1582.5 35.7815C1581.94 36.7317 1581.61 37.7981 1581.53 38.8975C1581.83 41.8212 1581.32 44.7698 1580.05 47.4232C1578.79 50.0765 1576.82 52.3331 1574.36 53.9476C1574.06 54.2434 1573.85 54.6086 1573.73 55.0094C1573.68 55.4967 1573.68 55.9883 1573.73 56.4757L1581.74 53.4083C1583.89 56.204 1586.2 58.8819 1588.64 61.4305C1591.01 63.672 1591.16 65.1045 1588.64 67.5483C1582.31 73.902 1578.51 81.2332 1581.53 90.6206C1581.81 91.555 1581.73 92.56 1581.3 93.4351C1578.27 98.7945 1576.62 105.047 1571 108.704C1570 109.671 1569.29 110.888 1568.94 112.227C1567.43 115.867 1565.92 119.524 1564.68 123.266C1564.3 125.009 1564.11 126.79 1564.13 128.574C1564.16 129.771 1564.03 130.966 1563.75 132.13C1562.79 134.591 1561.58 136.934 1560.38 139.327L1561 139.95ZM1551.75 268.154C1551.41 268.186 1551.07 268.186 1550.74 268.154C1546.13 265.71 1544.61 259.289 1538.51 258.666C1538.19 258.666 1537.73 257.469 1537.79 256.862C1538.29 250.121 1538.22 243.38 1539.69 236.975C1540.98 231.313 1545.75 230.79 1549.82 235.054C1551.65 236.958 1553.76 238.593 1555.43 240.632C1556.54 241.814 1557.18 243.361 1557.22 244.981C1556.17 251.183 1554.77 257.317 1553.37 263.519C1552.93 265.096 1552.39 266.644 1551.75 268.154ZM1591.6 113.878C1589.54 116.356 1587.61 118.833 1585.5 121.159C1584.99 121.698 1583.9 121.681 1583.07 121.917C1583.07 121.06 1583.17 120.205 1583.37 119.372C1585.96 112.985 1589.52 106.834 1590.94 100.227C1591.82 96.0474 1593.32 93.6036 1596.81 91.6823C1597.25 91.9879 1597.64 92.3507 1597.98 92.761C1601.54 98.9125 1605.14 105.03 1608.52 111.3C1608.64 111.874 1608.62 112.47 1608.46 113.035C1608.3 113.6 1608 114.116 1607.59 114.536C1607 115.024 1605.48 114.536 1604.4 114.35C1602.71 114.03 1600.68 112.901 1599.33 113.423C1597.98 113.946 1597.32 116.12 1596.34 117.586C1596.08 117.561 1595.82 117.487 1595.58 117.367C1594.23 116.204 1592.91 115.007 1591.6 113.878ZM1686.05 240.683C1685.46 242.734 1684.61 244.703 1683.53 246.548C1680.65 250.256 1678.32 249.834 1676.78 245.486C1675.55 242.367 1674.65 239.132 1674.08 235.829C1673.85 233.663 1674.33 231.482 1675.45 229.61C1677.39 226.509 1679.84 226.61 1681.52 229.813C1683.21 233.015 1684.53 236.908 1686.05 240.683Z" fill="#BD1616"/>
</g>
</g>
<defs>
<clipPath id="clip0_39_1618">
<rect width="1727" height="341" fill="white" transform="translate(0 0.185547)"/>
</clipPath>
<clipPath id="clip1_39_1618">
<rect width="333" height="343" fill="white" transform="matrix(-1 0 0 1 1819 0.185547)"/>
</clipPath>
</defs>
</svg>
