<svg width="30" height="42" viewBox="0 0 30 42" fill="none" xmlns="http://www.w3.org/2000/svg">
<g clip-path="url(#clip0_12_1043)">
<path d="M0.533203 15.2923C0.624955 8.2113 5.78719 2.17394 12.799 1.04213C20.5528 -0.211515 27.9589 5.04993 29.3191 12.7674C29.8422 15.7332 29.3658 18.5787 28.3742 21.3698C27.2088 24.6466 25.5203 27.6605 23.5822 30.5285C21.2675 33.9575 18.8626 37.3257 16.4996 40.7212C16.3837 40.8815 16.2743 41.053 16.1584 41.2165C15.5563 42.071 14.6147 42.0726 14.0143 41.2165C12.8231 39.5252 11.6368 37.8307 10.4392 36.1426C8.24517 33.0502 6.05119 29.9593 4.21615 26.6345C2.80607 24.0791 1.58915 21.4435 0.996792 18.5691C0.779485 17.4918 0.684513 16.3857 0.533203 15.2923ZM15.1394 38.5922C17.6843 34.8393 20.2035 31.1954 22.6422 27.4985C24.0393 25.3802 25.182 23.1058 26.0466 20.7221C26.866 18.4665 27.3521 16.1596 27.0334 13.7437C26.6328 10.654 25.0417 7.84036 22.5963 5.89762C20.1508 3.95488 17.0428 3.03521 13.929 3.33299C11.5429 3.56592 9.28017 4.50002 7.42836 6.0166C5.57654 7.53319 4.21921 9.56379 3.52882 11.8504C2.7111 14.619 2.98153 17.3331 3.87329 20.0264C4.83105 22.912 6.23629 25.602 7.91036 28.1286C10.0029 31.2755 12.1889 34.3535 14.3362 37.4604C14.5696 37.797 14.8111 38.1305 15.1394 38.5922Z" fill="white"/>
<path d="M15.0549 22.481C13.1374 22.4704 11.3024 21.703 9.95211 20.3471C8.60182 18.9912 7.84645 17.1573 7.85159 15.2476C7.86181 13.3385 8.63146 11.5113 9.99192 10.1663C11.3524 8.82128 13.1927 8.06819 15.1096 8.07204C17.0268 8.08264 18.8616 8.84979 20.2119 10.2054C21.5621 11.5609 22.3177 13.3943 22.313 15.3037C22.3032 17.2131 21.5337 19.0408 20.1732 20.3861C18.8127 21.7315 16.9721 22.4848 15.0549 22.481ZM10.2629 15.2669C10.2659 16.5415 10.7756 17.7631 11.6806 18.6644C12.5855 19.5656 13.8121 20.0733 15.0919 20.0763C16.3637 20.0704 17.5821 19.5663 18.4836 18.6729C19.3852 17.7796 19.8975 16.5687 19.9097 15.3021C19.9127 14.0286 19.4093 12.8058 18.5095 11.9009C17.6097 10.996 16.3867 10.4828 15.108 10.4735C13.8276 10.4714 12.5987 10.9749 11.6904 11.8737C10.7822 12.7726 10.2688 13.9933 10.2629 15.2685V15.2669Z" fill="white"/>
</g>
<defs>
<clipPath id="clip0_12_1043">
<rect width="29" height="41" fill="white" transform="translate(0.533203 0.85791)"/>
</clipPath>
</defs>
</svg>
