<svg width="40" height="27" viewBox="0 0 40 27" fill="none" xmlns="http://www.w3.org/2000/svg">
<g clip-path="url(#clip0_1_1562)">
<path d="M20.0344 27H4.27022C1.96021 27 0.535156 25.6036 0.535156 23.3414C0.535156 16.7178 0.535156 10.0942 0.535156 3.47059C0.535156 1.6759 1.71762 0.314104 3.50734 0.0345298C3.7212 0.00623335 3.93704 -0.00482159 4.15273 0.00146628H35.9115C38.0826 0.00146628 39.5321 1.43691 39.5321 3.58332C39.5321 10.1969 39.5321 16.8105 39.5321 23.4241C39.5321 25.584 38.0796 27.006 35.8703 27.006L20.0344 27ZM4.59061 2.26661L4.5357 2.35832C4.63064 2.42166 4.72136 2.49095 4.80729 2.56575C9.51274 7.21029 14.2172 11.8553 18.9206 16.5009C19.6926 17.2629 20.3777 17.2629 21.1497 16.5009C25.8623 11.8473 30.5749 7.19275 35.2874 2.53718C35.3637 2.46202 35.44 2.38688 35.5377 2.26513L4.59061 2.26661ZM4.50672 24.7153H35.5651L25.7636 15.1511C25.6904 15.2203 25.5882 15.3119 25.492 15.4066C24.5415 16.3446 23.5955 17.287 22.6419 18.2204C21.1451 19.6844 18.9236 19.6829 17.4299 18.2204C16.8532 17.6567 16.2841 17.0856 15.7104 16.5204C15.2374 16.053 14.7614 15.587 14.3097 15.1436L4.50672 24.7153ZM12.6207 13.5248L2.85583 3.99067V23.0513L12.6207 13.5248ZM37.216 23.0664V4.02223L27.4511 13.5383L37.216 23.0664Z" fill="white"/>
</g>
<defs>
<clipPath id="clip0_1_1562">
<rect width="39" height="27" fill="white" transform="translate(0.533203)"/>
</clipPath>
</defs>
</svg>
