<svg width="36" height="37" viewBox="0 0 36 37" fill="none" xmlns="http://www.w3.org/2000/svg">
<g clip-path="url(#clip0_1_1171)">
<path d="M14.8341 21.3519H14.3672C10.6532 21.3519 6.93914 21.3519 3.22509 21.3519C1.46721 21.3519 0.0637212 20.0244 0.00184379 18.3382C-0.0191971 17.9097 0.0473749 17.4813 0.197494 17.0793C0.347613 16.6774 0.578125 16.3103 0.874939 16.0004C1.17175 15.6906 1.52863 15.4445 1.92377 15.2773C2.31891 15.11 2.744 15.0251 3.17306 15.0278C5.86754 15.0151 8.56202 15.0278 11.2565 15.0278H14.8341V14.5862C14.8341 10.8609 14.8341 7.13276 14.8341 3.40886C14.8341 1.62848 16.2011 0.222178 17.928 0.194052C18.3512 0.183081 18.7724 0.257465 19.1662 0.412766C19.5601 0.568066 19.9187 0.801098 20.2205 1.09797C20.5224 1.39484 20.7614 1.74947 20.9232 2.1407C21.085 2.53193 21.1664 2.95175 21.1625 3.37511C21.1738 6.21023 21.1625 9.04533 21.1625 11.8804V15.0278H21.5774C25.3139 15.0278 29.0519 15.0278 32.7898 15.0278C33.6246 15.0153 34.4303 15.3337 35.0311 15.9134C35.6319 16.4931 35.9788 17.287 35.9962 18.1216C36.0053 18.5446 35.9292 18.965 35.7726 19.3579C35.6159 19.7509 35.3819 20.1083 35.0844 20.409C34.7868 20.7097 34.4319 20.9475 34.0406 21.1083C33.6493 21.269 33.2297 21.3495 32.8067 21.3449C29.6327 21.3561 26.4572 21.3449 23.2818 21.3449H21.1625V21.7668C21.1625 25.5033 21.1625 29.2413 21.1625 32.9793C21.1761 33.8114 20.8606 34.6152 20.2847 35.2159C19.7087 35.8166 18.9189 36.1656 18.0869 36.187C17.6672 36.1994 17.2492 36.1278 16.8575 35.9765C16.4658 35.8252 16.1082 35.5972 15.8058 35.3059C15.5033 35.0146 15.2621 34.6659 15.0962 34.2801C14.9303 33.8943 14.8431 33.4793 14.8398 33.0594C14.8229 30.7629 14.8398 28.4664 14.8398 26.1685C14.8398 24.7041 14.8398 23.2397 14.8398 21.7752L14.8341 21.3519Z" fill="white"/>
</g>
<defs>
<clipPath id="clip0_1_1171">
<rect width="36" height="36" fill="white" transform="translate(0 0.187012)"/>
</clipPath>
</defs>
</svg>
